<svg width="32" height="33" viewBox="0 0 32 33" fill="none" xmlns="http://www.w3.org/2000/svg">
<path d="M32 16.853C32 25.6905 24.8375 32.853 16 32.853C7.1625 32.853 0 25.6905 0 16.853C0 8.01553 7.1625 0.853027 16 0.853027C24.8375 0.853027 32 8.01553 32 16.853Z" fill="#A6CE39"/>
<path d="M10.7875 24.1277H8.86255V10.7402H10.7875V16.7902V24.1277V24.1277Z" fill="white"/>
<path d="M13.6125 10.7402H18.8125C23.7625 10.7402 25.9375 14.2777 25.9375 17.4402C25.9375 20.8777 23.25 24.1402 18.8375 24.1402H13.6125V10.7402V10.7402ZM15.5375 22.4027H18.6C22.9625 22.4027 23.9625 19.0902 23.9625 17.4402C23.9625 14.7527 22.25 12.4777 18.5 12.4777H15.5375V22.4027Z" fill="white"/>
<path d="M11.0875 7.95293C11.0875 8.64043 10.525 9.21543 9.825 9.21543C9.125 9.21543 8.5625 8.64043 8.5625 7.95293C8.5625 7.25293 9.125 6.69043 9.825 6.69043C10.525 6.69043 11.0875 7.26543 11.0875 7.95293Z" fill="white"/>
</svg>
