<svg width="32" height="32" viewBox="0 0 32 32" fill="none" xmlns="http://www.w3.org/2000/svg">
<path d="M23.655 25.9899L29.2042 15.9894L23.6763 6.01001H25.0583C25.8237 6.01001 26.7379 6.55511 27.0994 7.20503L31.9469 15.9894L27.0781 24.7739C26.7167 25.4448 25.7812 25.9689 25.037 25.9689H23.655V25.9899Z" fill="#20558A"/>
<path d="M1.90267 6.01001C0.882125 6.01001 0.0531006 6.82782 0.0531006 7.85511V24.1449C0.0531006 25.1512 0.882125 25.99 1.90267 25.99H22.2712L27.8203 15.9894L22.2712 6.01001H1.90267ZM3.15717 11.5449H4.81572L8.89772 18.1281H8.9189V11.5449H10.4072V20.476H8.74906L4.68823 13.9137H4.64546V20.476H3.15717V11.5449ZM11.9594 11.5449H13.5329V20.476H13.5117H11.9594V11.5449ZM15.0847 11.5449H16.6581V15.0881H20.7405V11.5449H22.2923V20.476H20.7189V16.4508H16.6581V20.476H15.0847V11.5449Z" fill="#616265"/>
</svg>
